<svg width="67" height="19" viewBox="0 0 67 19" fill="none" xmlns="http://www.w3.org/2000/svg">
<path d="M3.12109 3.21289H5.63086C7.0957 3.21289 8.01367 4.0918 8.01367 5.45898C8.01367 6.85547 7.14453 7.70508 5.66016 7.70508H3.12109V3.21289ZM3.12109 9.84375H5.48438L8.11133 15H11.4512L8.48242 9.4043C10.1035 8.76953 11.041 7.20703 11.041 5.40039C11.041 2.61719 9.18555 0.908203 5.94336 0.908203H0.171875V15H3.12109V9.84375ZM17.3398 6.41602C18.6094 6.41602 19.4785 7.33398 19.5371 8.67188H15.0938C15.1914 7.36328 16.0898 6.41602 17.3398 6.41602ZM19.5762 11.7969C19.3125 12.5977 18.5117 13.1152 17.4668 13.1152C16.0117 13.1152 15.0645 12.0898 15.0645 10.5957V10.4199H22.2812V9.55078C22.2812 6.36719 20.3574 4.30664 17.3105 4.30664C14.2148 4.30664 12.2617 6.47461 12.2617 9.81445C12.2617 13.1641 14.1953 15.2246 17.418 15.2246C20.0059 15.2246 21.8809 13.8477 22.1934 11.7969H19.5762Z" fill="black"/>
<path d="M29.8691 4.36523C28.3555 4.36523 27.1934 5.12695 26.627 6.35742H26.5684V4.53125H23.7559V18.418H26.6074V13.2422H26.666C27.2227 14.4238 28.3945 15.166 29.918 15.166C32.5352 15.166 34.1562 13.1348 34.1562 9.76562C34.1562 6.38672 32.5254 4.36523 29.8691 4.36523ZM28.9121 12.8711C27.5156 12.8711 26.5977 11.6602 26.5977 9.76562C26.5977 7.89062 27.5156 6.65039 28.9121 6.65039C30.3379 6.65039 31.2363 7.87109 31.2363 9.76562C31.2363 11.6699 30.3379 12.8711 28.9121 12.8711ZM45.2988 4.53125H42.4473V10.5273C42.4473 11.9141 41.6562 12.8223 40.3867 12.8223C39.127 12.8223 38.4336 12.0801 38.4336 10.6836V4.53125H35.582V11.2793C35.582 13.7207 37.0859 15.1953 39.3516 15.1953C40.9336 15.1953 41.9688 14.4336 42.4863 13.1152H42.5449V15H45.2988V4.53125ZM53.375 15.166C56.0117 15.166 57.623 13.1348 57.623 9.76562C57.623 6.38672 56.002 4.36523 53.3652 4.36523C51.8711 4.36523 50.709 5.10742 50.1328 6.34766H50.0742V0.908203H47.2227V15H50.0352V13.2031H50.0938C50.6699 14.4238 51.8418 15.166 53.375 15.166ZM52.3887 6.65039C53.8047 6.65039 54.7031 7.86133 54.7031 9.76562C54.7031 11.6797 53.8145 12.8711 52.3887 12.8711C51.002 12.8711 50.0645 11.6602 50.0645 9.76562C50.0645 7.89062 51.0117 6.65039 52.3887 6.65039ZM59.1758 15H62.0273V0.908203H59.1758V15ZM64 15H66.8516V4.53125H64V15ZM65.4258 3.37891C66.2852 3.37891 66.9492 2.72461 66.9492 1.9043C66.9492 1.07422 66.2852 0.429688 65.4258 0.429688C64.5664 0.429688 63.9023 1.07422 63.9023 1.9043C63.9023 2.72461 64.5664 3.37891 65.4258 3.37891Z" fill="#246BFD"/>
</svg>
